<svg width="228" height="31" viewBox="0 0 228 31" fill="none" xmlns="http://www.w3.org/2000/svg">
<path d="M0.504 24V23.68L2.904 23.264V2.112L0.632 1.664V1.344H6.36L15.256 20.8L14.84 20.32H15.768L15.416 20.768L22.424 1.344H28.12V1.664L26.136 2.08V23.264L28.12 23.68V24H20.344V23.68L22.456 23.264V4.736H21.976L15.032 24H12.664L3.896 5.088H3.384V13.984C3.384 14.7733 3.43733 15.5947 3.544 16.448C3.65067 17.28 3.82133 18.1013 4.056 18.912C4.29067 19.7013 4.6 20.4373 4.984 21.12C5.38933 21.7813 5.89067 22.336 6.488 22.784C7.08533 23.232 7.78933 23.5307 8.6 23.68V24H0.504ZM34.0858 30.88C33.2964 30.88 32.6351 30.752 32.1018 30.496C31.5684 30.24 31.1524 29.888 30.8538 29.44C30.5764 29.0133 30.4378 28.5227 30.4378 27.968C30.4378 27.6267 30.5018 27.3387 30.6298 27.104C30.7791 26.8693 30.9711 26.6667 31.2057 26.496C31.4618 26.3467 31.7284 26.2293 32.0058 26.144C32.3044 26.0587 32.6138 26.016 32.9338 26.016C33.2964 26.016 33.6484 26.08 33.9898 26.208C34.3311 26.336 34.6084 26.5173 34.8218 26.752C35.0351 27.008 35.1418 27.328 35.1418 27.712C35.1418 28.0107 35.0991 28.288 35.0138 28.544C34.9284 28.8 34.8111 29.0347 34.6618 29.248C34.5338 29.4613 34.4271 29.6213 34.3418 29.728C34.2778 29.856 34.2458 29.9627 34.2458 30.048C34.2458 30.1973 34.4804 30.272 34.9498 30.272C35.3338 30.272 35.7284 30.1227 36.1338 29.824C36.5391 29.5253 36.9124 29.088 37.2538 28.512C37.5311 28.1067 37.8298 27.4987 38.1498 26.688C38.4911 25.8987 38.8324 25.0027 39.1738 24H37.4458L31.2378 8.64L29.2538 8.32V8H36.9978V8.32L35.0458 8.608L39.9418 21.024H40.3258L43.0138 13.408C43.0991 13.152 43.1631 12.8747 43.2058 12.576C43.2698 12.256 43.3018 11.936 43.3018 11.616C43.3018 11.232 43.2484 10.848 43.1418 10.464C43.0564 10.08 42.8964 9.728 42.6618 9.408C42.4484 9.088 42.1391 8.832 41.7338 8.64C41.3284 8.42667 40.8164 8.32 40.1978 8.32V8H47.3018V8.32L45.2858 8.64L39.6218 24C39.1738 25.2373 38.7684 26.272 38.4058 27.104C38.0431 27.936 37.7444 28.5227 37.5098 28.864C37.1258 29.4827 36.6564 29.9733 36.1018 30.336C35.5471 30.6987 34.8751 30.88 34.0858 30.88ZM59.9533 1.344C61.6173 1.344 63.0039 1.54667 64.1133 1.952C65.2439 2.336 66.0866 2.912 66.6413 3.68C67.2173 4.448 67.5053 5.41867 67.5053 6.592C67.5053 7.488 67.3026 8.26667 66.8973 8.928C66.5133 9.58933 66.0119 10.1333 65.3933 10.56C64.7746 10.9867 64.0813 11.3173 63.3133 11.552C62.5453 11.7653 61.7879 11.8933 61.0413 11.936V12.192C62.0013 12.2133 62.9399 12.3413 63.8573 12.576C64.7746 12.7893 65.5959 13.12 66.3213 13.568C67.0466 14.016 67.6226 14.6027 68.0493 15.328C68.4759 16.032 68.6893 16.9067 68.6893 17.952C68.6893 18.976 68.4973 19.872 68.1133 20.64C67.7506 21.3867 67.2066 22.016 66.4813 22.528C65.7559 23.0187 64.8493 23.392 63.7613 23.648C62.6733 23.8827 61.4039 24 59.9533 24H49.0093V23.68L50.9613 23.2V2.144L49.0093 1.664V1.344H59.9533ZM59.1533 1.856C58.1079 1.856 57.2119 1.87733 56.4653 1.92C55.7186 1.94133 55.1106 1.99467 54.6413 2.08V23.296C55.4519 23.4453 56.9986 23.52 59.2813 23.52C60.4973 23.52 61.5426 23.328 62.4173 22.944C63.3133 22.56 63.9959 21.9413 64.4653 21.088C64.9559 20.2133 65.2013 19.0933 65.2013 17.728C65.2013 15.9147 64.7106 14.5813 63.7292 13.728C62.7693 12.8533 61.2119 12.3947 59.0573 12.352L54.4173 12.288V11.936L59.0573 11.872C60.2519 11.8507 61.2226 11.6267 61.9693 11.2C62.7373 10.752 63.3026 10.1333 63.6653 9.344C64.0493 8.55467 64.2413 7.63733 64.2413 6.592C64.2413 5.056 63.8146 3.88266 62.9613 3.072C62.1079 2.26133 60.8386 1.856 59.1533 1.856ZM80.1403 7.52C81.8469 7.52 83.2549 7.86133 84.3643 8.544C85.4949 9.22667 86.3376 10.1547 86.8923 11.328C87.4683 12.48 87.7563 13.8027 87.7563 15.296H75.1163V14.976L84.4923 14.624C84.4923 13.216 84.3323 12.0213 84.0123 11.04C83.6923 10.0373 83.2123 9.26933 82.5723 8.736C81.9323 8.20267 81.1216 7.936 80.1403 7.936C79.1376 7.936 78.2629 8.224 77.5163 8.8C76.7696 9.376 76.1936 10.24 75.7883 11.392C75.3829 12.544 75.1803 13.9733 75.1803 15.68C75.1803 16.6827 75.3189 17.6427 75.5963 18.56C75.8736 19.456 76.2683 20.2667 76.7803 20.992C77.2923 21.696 77.9216 22.2507 78.6683 22.656C79.4149 23.0613 80.2683 23.264 81.2283 23.264C81.8683 23.264 82.4976 23.1787 83.1163 23.008C83.7349 22.8373 84.3109 22.592 84.8443 22.272C85.3776 21.9307 85.8576 21.5253 86.2843 21.056C86.7323 20.5653 87.1163 20 87.4363 19.36L87.7563 19.68C87.2869 20.6187 86.7536 21.3973 86.1562 22.016C85.5589 22.6347 84.9083 23.1253 84.2043 23.488C83.5003 23.8507 82.7749 24.1067 82.0283 24.256C81.2816 24.4053 80.5243 24.48 79.7563 24.48C78.4763 24.48 77.3349 24.256 76.3323 23.808C75.3296 23.36 74.4763 22.7627 73.7723 22.016C73.0683 21.248 72.5243 20.3627 72.1403 19.36C71.7776 18.3573 71.5963 17.2907 71.5963 16.16C71.5963 14.8587 71.8096 13.6853 72.2363 12.64C72.6629 11.5733 73.2496 10.656 73.9963 9.888C74.7643 9.12 75.6709 8.53333 76.7163 8.128C77.7616 7.72267 78.9029 7.52 80.1403 7.52ZM99.5175 7.52C100.755 7.52 101.811 7.66933 102.686 7.968C103.582 8.24533 104.318 8.68267 104.894 9.28C105.47 9.87733 105.886 10.6347 106.142 11.552C106.398 12.448 106.526 13.5147 106.526 14.752V22.88C106.526 23.2 106.59 23.4347 106.718 23.584C106.867 23.7333 107.059 23.808 107.294 23.808C107.55 23.808 107.838 23.7333 108.158 23.584C108.499 23.4347 108.83 23.2427 109.15 23.008V23.36C108.894 23.5947 108.584 23.7973 108.222 23.968C107.88 24.1387 107.518 24.2667 107.134 24.352C106.75 24.4373 106.376 24.48 106.014 24.48C105.075 24.48 104.339 24.2347 103.806 23.744C103.272 23.232 103.006 22.4107 103.006 21.28C103.006 20.8533 103.006 20.544 103.006 20.352C103.006 20.1387 103.006 19.9787 103.006 19.872C103.006 19.7653 103.006 19.648 103.006 19.52L102.75 19.328C102.344 20.1387 101.854 20.864 101.278 21.504C100.723 22.144 100.094 22.688 99.3895 23.136C98.7068 23.5627 98.0028 23.8933 97.2775 24.128C96.5522 24.3627 95.8268 24.48 95.1015 24.48C94.3122 24.48 93.5975 24.3413 92.9575 24.064C92.3175 23.808 91.8055 23.424 91.4215 22.912C91.0375 22.3787 90.8455 21.728 90.8455 20.96C90.8455 19.1467 91.8802 17.7707 93.9495 16.832C96.0188 15.872 99.0375 15.392 103.006 15.392C103.006 13.5787 102.867 12.1493 102.59 11.104C102.312 10.0373 101.832 9.26933 101.15 8.8C100.467 8.33067 99.5282 8.096 98.3335 8.096C97.5442 8.096 96.8402 8.17067 96.2215 8.32C95.6242 8.448 95.1548 8.608 94.8135 8.8C94.4935 8.992 94.3335 9.16267 94.3335 9.312C94.3335 9.41867 94.4295 9.536 94.6215 9.664C94.8348 9.77067 95.2082 9.93067 95.7415 10.144C96.7228 10.528 97.2135 11.072 97.2135 11.776C97.2135 12.416 96.9362 12.9067 96.3815 13.248C95.8268 13.568 95.1548 13.728 94.3655 13.728C93.5975 13.728 92.9362 13.5573 92.3815 13.216C91.8482 12.8747 91.5815 12.384 91.5815 11.744C91.5815 11.232 91.7948 10.7307 92.2215 10.24C92.6695 9.728 93.2562 9.26933 93.9815 8.864C94.7282 8.45867 95.5708 8.13867 96.5095 7.904C97.4695 7.648 98.4722 7.52 99.5175 7.52ZM103.006 15.776C100.979 15.776 99.3042 16 97.9815 16.448C96.6588 16.8747 95.6775 17.4613 95.0375 18.208C94.3975 18.9547 94.0775 19.7867 94.0775 20.704C94.0775 21.2587 94.1842 21.7173 94.3975 22.08C94.6322 22.4213 94.9415 22.6773 95.3255 22.848C95.7095 23.0187 96.1468 23.104 96.6375 23.104C97.1708 23.104 97.7362 23.008 98.3335 22.816C98.9522 22.6027 99.5602 22.2827 100.158 21.856C100.755 21.4293 101.299 20.896 101.79 20.256C102.302 19.5947 102.707 18.816 103.006 17.92V15.776ZM117.077 24.48C115.563 24.48 114.421 24.0107 113.653 23.072C112.885 22.1333 112.501 20.7147 112.501 18.816V8.96H110.517V8.608L116.021 7.52V19.328C116.021 20.5867 116.245 21.5467 116.693 22.208C117.141 22.848 117.792 23.168 118.645 23.168C119.349 23.168 120.064 22.9227 120.789 22.432C121.515 21.92 122.197 21.2373 122.837 20.384C123.477 19.5093 124.011 18.528 124.437 17.44V8.96H122.485V8.608L127.957 7.52V23.04H129.909V23.392L124.437 24.48V19.2L124.181 19.008C123.243 20.8213 122.176 22.1867 120.981 23.104C119.787 24.0213 118.485 24.48 117.077 24.48ZM136.701 24.48C135.571 24.48 134.749 24.1493 134.237 23.488C133.747 22.8053 133.501 21.7707 133.501 20.384V8.64H131.229V8.32L133.533 8L136.573 2.752H137.021V7.776L140.445 8.32V8.64H137.021V21.504C137.021 22.2507 137.128 22.784 137.341 23.104C137.555 23.424 137.843 23.584 138.205 23.584C138.589 23.584 138.952 23.456 139.293 23.2C139.656 22.9227 140.019 22.5813 140.381 22.176L140.509 22.56C140.296 22.7947 140.04 23.0293 139.741 23.264C139.464 23.4773 139.155 23.68 138.813 23.872C138.493 24.064 138.152 24.2133 137.789 24.32C137.448 24.4267 137.085 24.48 136.701 24.48ZM146.461 30.88C145.671 30.88 145.01 30.752 144.477 30.496C143.943 30.24 143.527 29.888 143.229 29.44C142.951 29.0133 142.813 28.5227 142.813 27.968C142.813 27.6267 142.877 27.3387 143.005 27.104C143.154 26.8693 143.346 26.6667 143.581 26.496C143.837 26.3467 144.103 26.2293 144.381 26.144C144.679 26.0587 144.989 26.016 145.309 26.016C145.671 26.016 146.023 26.08 146.365 26.208C146.706 26.336 146.983 26.5173 147.197 26.752C147.41 27.008 147.517 27.328 147.517 27.712C147.517 28.0107 147.474 28.288 147.389 28.544C147.303 28.8 147.186 29.0347 147.037 29.248C146.909 29.4613 146.802 29.6213 146.717 29.728C146.653 29.856 146.621 29.9627 146.621 30.048C146.621 30.1973 146.855 30.272 147.325 30.272C147.709 30.272 148.103 30.1227 148.509 29.824C148.914 29.5253 149.287 29.088 149.629 28.512C149.906 28.1067 150.205 27.4987 150.525 26.688C150.866 25.8987 151.207 25.0027 151.549 24H149.821L143.613 8.64L141.629 8.32V8H149.373V8.32L147.421 8.608L152.317 21.024H152.701L155.389 13.408C155.474 13.152 155.538 12.8747 155.581 12.576C155.645 12.256 155.677 11.936 155.677 11.616C155.677 11.232 155.623 10.848 155.517 10.464C155.431 10.08 155.271 9.728 155.037 9.408C154.823 9.088 154.514 8.832 154.109 8.64C153.703 8.42667 153.191 8.32 152.573 8.32V8H159.677V8.32L157.661 8.64L151.997 24C151.549 25.2373 151.143 26.272 150.781 27.104C150.418 27.936 150.119 28.5227 149.885 28.864C149.501 29.4827 149.031 29.9733 148.477 30.336C147.922 30.6987 147.25 30.88 146.461 30.88ZM172.2 1.344C173.992 1.344 175.496 1.57867 176.712 2.048C177.928 2.496 178.846 3.168 179.464 4.064C180.083 4.96 180.392 6.05867 180.392 7.36C180.392 9.45067 179.582 11.0827 177.96 12.256C176.36 13.408 174.099 13.984 171.176 13.984C170.43 13.984 169.683 13.9627 168.936 13.92C168.19 13.856 167.486 13.7813 166.824 13.696V12.96C167.742 13.3013 168.99 13.472 170.568 13.472C172.51 13.472 174.003 12.9493 175.048 11.904C176.115 10.8587 176.648 9.38667 176.648 7.488C176.648 6.272 176.424 5.248 175.976 4.416C175.55 3.584 174.92 2.95467 174.088 2.528C173.256 2.08 172.232 1.856 171.016 1.856C170.483 1.856 169.95 1.86667 169.416 1.888C168.904 1.90933 168.435 1.93067 168.008 1.952C167.603 1.97333 167.272 2.016 167.016 2.08V23.264L168.968 23.68V24H161.384V23.68L163.336 23.264V2.08L161.384 1.664V1.344H172.2ZM186.299 4.928C185.745 4.928 185.254 4.84267 184.827 4.672C184.401 4.50133 184.07 4.26667 183.835 3.968C183.601 3.66933 183.483 3.328 183.483 2.944C183.483 2.53867 183.601 2.19733 183.835 1.92C184.07 1.62133 184.401 1.38667 184.827 1.216C185.254 1.04533 185.745 0.959999 186.299 0.959999C186.854 0.959999 187.345 1.04533 187.771 1.216C188.198 1.38667 188.529 1.62133 188.763 1.92C189.019 2.19733 189.147 2.53867 189.147 2.944C189.147 3.328 189.019 3.66933 188.763 3.968C188.529 4.26667 188.198 4.50133 187.771 4.672C187.345 4.84267 186.854 4.928 186.299 4.928ZM182.939 24V23.68L184.731 23.36V8.96H182.747V8.608L188.251 7.52V23.36L190.011 23.68V24H182.939ZM200.412 24.48C198.833 24.48 197.425 24.128 196.188 23.424C194.972 22.72 194.012 21.7387 193.308 20.48C192.625 19.2213 192.284 17.7813 192.284 16.16C192.284 14.8587 192.497 13.6853 192.924 12.64C193.372 11.5733 193.99 10.656 194.78 9.888C195.59 9.12 196.55 8.53333 197.66 8.128C198.79 7.72267 200.049 7.52 201.436 7.52C202.268 7.52 203.078 7.616 203.868 7.808C204.657 7.97867 205.372 8.24533 206.012 8.608C206.652 8.94933 207.153 9.376 207.516 9.888C207.878 10.3787 208.06 10.944 208.06 11.584C208.06 12.032 207.932 12.4053 207.676 12.704C207.441 12.9813 207.11 13.1947 206.684 13.344C206.257 13.4933 205.788 13.568 205.276 13.568C204.508 13.568 203.836 13.408 203.26 13.088C202.705 12.768 202.428 12.288 202.428 11.648C202.428 11.2213 202.566 10.848 202.844 10.528C203.142 10.208 203.558 9.97333 204.092 9.824C204.902 9.54667 205.308 9.30133 205.308 9.088C205.308 8.91733 205.169 8.74667 204.892 8.576C204.614 8.384 204.22 8.23467 203.708 8.128C203.196 8 202.577 7.936 201.852 7.936C200.956 7.936 200.134 8.13867 199.388 8.544C198.662 8.928 198.033 9.472 197.5 10.176C196.966 10.8587 196.55 11.6587 196.252 12.576C195.974 13.4933 195.836 14.4853 195.836 15.552C195.836 16.7253 195.985 17.792 196.284 18.752C196.582 19.6907 196.998 20.5013 197.532 21.184C198.065 21.8453 198.716 22.3573 199.484 22.72C200.252 23.0827 201.105 23.264 202.044 23.264C202.918 23.264 203.75 23.1147 204.54 22.816C205.329 22.5173 206.044 22.08 206.684 21.504C207.324 20.928 207.846 20.2133 208.252 19.36L208.572 19.68C208.081 20.64 207.526 21.44 206.908 22.08C206.31 22.6987 205.66 23.1893 204.956 23.552C204.252 23.8933 203.516 24.128 202.748 24.256C201.98 24.4053 201.201 24.48 200.412 24.48ZM216.439 23.36L218.199 23.68V24H211.127V23.68L212.919 23.36V1.6H210.935V1.248L216.439 0.159998V23.36ZM216.119 15.2V14.784C216.737 14.7413 217.441 14.5493 218.231 14.208C219.02 13.8667 219.82 13.4827 220.631 13.056C221.292 12.6933 221.836 12.384 222.263 12.128C222.689 11.872 223.009 11.648 223.223 11.456C223.436 11.264 223.543 11.104 223.543 10.976C223.543 10.8693 223.447 10.784 223.255 10.72C223.063 10.6347 222.817 10.5493 222.519 10.464C222.241 10.3787 221.932 10.2827 221.591 10.176C221.271 10.0693 220.961 9.94133 220.663 9.792C220.364 9.62133 220.119 9.408 219.927 9.152C219.735 8.87467 219.639 8.55467 219.639 8.192C219.639 7.78667 219.756 7.43467 219.991 7.136C220.247 6.816 220.588 6.57067 221.015 6.4C221.441 6.208 221.932 6.112 222.487 6.112C223.063 6.112 223.575 6.21867 224.023 6.432C224.471 6.64533 224.823 6.93333 225.079 7.296C225.356 7.65867 225.495 8.08533 225.495 8.576C225.495 9.17333 225.303 9.73867 224.919 10.272C224.535 10.8053 223.959 11.36 223.191 11.936C222.785 12.2347 222.263 12.576 221.623 12.96C220.983 13.344 220.225 13.76 219.351 14.208V14.56H221.559C222.007 15.5413 222.391 16.416 222.711 17.184C223.031 17.9307 223.319 18.592 223.575 19.168C224.023 20.0427 224.417 20.7893 224.759 21.408C225.121 22.0267 225.452 22.5173 225.751 22.88C226.049 23.2427 226.327 23.4667 226.583 23.552C226.711 23.5947 226.817 23.6053 226.903 23.584C226.988 23.5627 227.084 23.52 227.191 23.456V23.872C226.956 24 226.721 24.1067 226.487 24.192C226.273 24.2987 226.039 24.3733 225.783 24.416C225.548 24.4587 225.281 24.48 224.983 24.48C224.364 24.48 223.777 24.32 223.223 24C222.689 23.6587 222.167 23.136 221.655 22.432C221.143 21.7067 220.62 20.8107 220.087 19.744C219.767 18.9973 219.425 18.2613 219.063 17.536C218.721 16.8107 218.38 16.032 218.039 15.2H216.119Z" fill="black"/>
</svg>
